<mxfile host="app.diagrams.net" modified="2023-07-04T14:14:56.949Z" agent="Mozilla/5.0 (Windows NT 10.0; Win64; x64) AppleWebKit/537.36 (KHTML, like Gecko) Chrome/114.0.0.0 Safari/537.36" etag="qCknvEsWvD43PdymRiJV" version="21.5.2" type="github">
  <diagram name="Page-1" id="d4kmVtnINT09E_nv7EFe">
    <mxGraphModel dx="574" dy="1484" grid="1" gridSize="10" guides="1" tooltips="1" connect="1" arrows="1" fold="1" page="1" pageScale="1" pageWidth="827" pageHeight="1169" math="0" shadow="0">
      <root>
        <mxCell id="0" />
        <mxCell id="1" parent="0" />
        <mxCell id="fA6Pg5o1M4MF8J68K5Oz-13" value="" style="group" vertex="1" connectable="0" parent="1">
          <mxGeometry x="180" y="-830" width="215" height="190" as="geometry" />
        </mxCell>
        <mxCell id="fA6Pg5o1M4MF8J68K5Oz-2" value="t" style="rounded=0;whiteSpace=wrap;html=1;fillColor=#e1d5e7;strokeColor=#9673a6;" vertex="1" parent="fA6Pg5o1M4MF8J68K5Oz-13">
          <mxGeometry width="215" height="190" as="geometry" />
        </mxCell>
        <mxCell id="fA6Pg5o1M4MF8J68K5Oz-3" value="&lt;font size=&quot;1&quot; color=&quot;#000000&quot;&gt;&lt;b style=&quot;&quot;&gt;REGISTRY POD&lt;/b&gt;&lt;/font&gt;" style="text;align=center;html=1;verticalAlign=middle;whiteSpace=wrap;rounded=0;" vertex="1" parent="fA6Pg5o1M4MF8J68K5Oz-13">
          <mxGeometry x="61.25" width="92.5" height="20" as="geometry" />
        </mxCell>
        <mxCell id="fA6Pg5o1M4MF8J68K5Oz-11" value="" style="group" vertex="1" connectable="0" parent="fA6Pg5o1M4MF8J68K5Oz-13">
          <mxGeometry x="7.5" y="20" width="200" height="162" as="geometry" />
        </mxCell>
        <mxCell id="fA6Pg5o1M4MF8J68K5Oz-5" value="" style="rounded=0;whiteSpace=wrap;html=1;fillColor=#d0cee2;strokeColor=#56517e;" vertex="1" parent="fA6Pg5o1M4MF8J68K5Oz-11">
          <mxGeometry width="200" height="162" as="geometry" />
        </mxCell>
        <mxCell id="fA6Pg5o1M4MF8J68K5Oz-6" value="&lt;font size=&quot;1&quot; color=&quot;#000000&quot;&gt;&lt;b&gt;container- registry:latest&lt;/b&gt;&lt;/font&gt;" style="text;align=center;html=1;verticalAlign=middle;whiteSpace=wrap;rounded=0;" vertex="1" parent="fA6Pg5o1M4MF8J68K5Oz-11">
          <mxGeometry x="28.13" width="143.75" height="20" as="geometry" />
        </mxCell>
        <mxCell id="fA6Pg5o1M4MF8J68K5Oz-8" value="registryurl/image(1):tag" style="rounded=0;whiteSpace=wrap;html=1;fillColor=#76608a;strokeColor=#432D57;fontColor=#ffffff;" vertex="1" parent="fA6Pg5o1M4MF8J68K5Oz-11">
          <mxGeometry x="10" y="30" width="180" height="30" as="geometry" />
        </mxCell>
        <mxCell id="fA6Pg5o1M4MF8J68K5Oz-9" value="registryurl/image(2):tag" style="rounded=0;whiteSpace=wrap;html=1;fillColor=#76608a;strokeColor=#432D57;fontColor=#ffffff;" vertex="1" parent="fA6Pg5o1M4MF8J68K5Oz-11">
          <mxGeometry x="10" y="66" width="180" height="30" as="geometry" />
        </mxCell>
        <mxCell id="fA6Pg5o1M4MF8J68K5Oz-10" value="registryurl/image(n):tag" style="rounded=0;whiteSpace=wrap;html=1;fillColor=#76608a;strokeColor=#432D57;fontColor=#ffffff;" vertex="1" parent="fA6Pg5o1M4MF8J68K5Oz-11">
          <mxGeometry x="10" y="124" width="180" height="30" as="geometry" />
        </mxCell>
        <mxCell id="fA6Pg5o1M4MF8J68K5Oz-12" value="&lt;p style=&quot;line-height: 40%;&quot;&gt;&lt;font size=&quot;1&quot; color=&quot;#000000&quot;&gt;&lt;b&gt;.&lt;br&gt;.&lt;br&gt;.&lt;br&gt;&lt;/b&gt;&lt;/font&gt;&lt;/p&gt;" style="text;align=center;html=1;verticalAlign=middle;whiteSpace=wrap;rounded=0;" vertex="1" parent="fA6Pg5o1M4MF8J68K5Oz-11">
          <mxGeometry x="28.129999999999995" y="99" width="143.75" height="20" as="geometry" />
        </mxCell>
      </root>
    </mxGraphModel>
  </diagram>
</mxfile>
